<?xml version="1.0" encoding="utf-8"?>
<!-- Generator: Adobe Illustrator 16.0.0, SVG Export Plug-In . SVG Version: 6.00 Build 0)  -->
<!DOCTYPE svg PUBLIC "-//W3C//DTD SVG 1.1//EN" "http://www.w3.org/Graphics/SVG/1.1/DTD/svg11.dtd">
<svg version="1.1" id="Layer_1" xmlns="http://www.w3.org/2000/svg" xmlns:xlink="http://www.w3.org/1999/xlink" x="0px" y="0px"
	 width="512px" height="512px" viewBox="0 0 512 512" enable-background="new 0 0 512 512" xml:space="preserve">
<g>
	<path fill="#231F20" d="M141.548,339.869c0,0,0.098-0.286,0.287-0.841c0.192-0.552,0.479-1.37,0.898-2.415
		c0.83-2.095,2.072-5.166,3.902-8.962c1.827-3.796,4.209-8.337,7.257-13.385c3.057-5.038,6.762-10.602,11.284-16.363
		c2.258-2.881,4.704-5.829,7.396-8.753c2.677-2.938,5.562-5.895,8.708-8.77c3.127-2.896,6.493-5.744,10.134-8.433
		c3.628-2.705,7.489-5.318,11.639-7.66c8.256-4.737,17.604-8.573,27.631-10.72c5.019-1.069,10.14-1.729,15.393-1.902l3.532-0.096
		c1.244-0.009,2.601,0.025,3.897,0.04l1.966,0.033l1.912,0.108c1.271,0.082,2.543,0.142,3.815,0.246
		c10.167,0.933,20.358,3.271,29.682,7.223c4.662,1.953,9.138,4.199,13.328,6.722c4.193,2.521,8.112,5.272,11.803,8.089
		c7.348,5.692,13.724,11.678,19.634,17.074c2.975,2.675,5.807,5.247,8.631,7.508c2.809,2.247,5.635,4.285,8.336,5.856
		c0.76,0.413,1.597,0.909,2.217,1.192c0.672,0.326,1.303,0.675,2.026,0.974c1.399,0.635,2.801,1.184,4.197,1.618
		c2.792,0.882,5.548,1.42,8.188,1.649c2.641,0.217,5.163,0.15,7.497-0.12c2.33-0.287,4.475-0.746,6.39-1.295
		c3.829-1.108,6.761-2.464,8.675-3.52c1.929-1.045,2.887-1.733,2.887-1.733c0.106-0.076,0.256-0.052,0.332,0.055
		c0.063,0.089,0.057,0.206-0.008,0.288c0,0-0.754,0.954-2.43,2.487c-1.692,1.501-4.29,3.654-8.115,5.697
		c-3.803,2.032-8.897,3.991-15.153,4.553c-3.116,0.292-6.5,0.233-10.009-0.31c-1.758-0.255-3.543-0.64-5.341-1.132
		c-0.896-0.208-1.837-0.558-2.778-0.866c-1.005-0.325-1.729-0.636-2.582-0.955c-7.338-2.945-14.068-7.528-20.744-12.387
		c-6.676-4.862-13.301-10.063-20.387-14.665c-7.035-4.668-14.558-8.671-22.546-11.566c-4.005-1.411-8.092-2.649-12.298-3.504
		c-4.203-0.864-8.489-1.403-12.814-1.764c-1.082-0.075-2.173-0.109-3.259-0.168l-1.625-0.077l-1.575-0.004
		c-1.064,0.002-2.066-0.025-3.178-0.008l-3.531,0.137c-4.153,0.153-8.377,0.604-12.462,1.452c-4.089,0.86-8.139,1.893-12.047,3.3
		c-3.901,1.416-7.723,3.008-11.395,4.831c-3.661,1.845-7.207,3.842-10.603,5.97c-3.383,2.147-6.644,4.383-9.742,6.701
		c-3.084,2.333-6.047,4.696-8.851,7.083c-2.786,2.403-5.46,4.781-7.958,7.153c-4.999,4.744-9.428,9.334-13.249,13.531
		c-3.829,4.192-7.068,7.98-9.697,11.147c-2.625,3.171-4.673,5.705-6.027,7.464c-1.352,1.763-2.072,2.703-2.072,2.703l-0.011,0.016
		c-0.19,0.248-0.545,0.295-0.794,0.104C141.542,340.351,141.472,340.094,141.548,339.869z"/>
	<path fill="#231F20" d="M152.591,339.569c0,0,0.186-0.069,0.544-0.204c0.368-0.135,0.913-0.33,1.616-0.563
		c1.413-0.475,3.493-1.137,6.185-1.827c2.69-0.703,5.995-1.396,9.827-2.042c3.84-0.565,8.208-1.088,13.021-1.272
		c1.202-0.062,2.432-0.027,3.687-0.044c0.628-0.002,1.262-0.005,1.901-0.007c0.639,0.01,1.284,0.053,1.935,0.079
		c1.302,0.068,2.63,0.104,3.976,0.204c1.345,0.137,2.711,0.275,4.095,0.416c1.392,0.106,2.775,0.425,4.192,0.643
		c1.415,0.238,2.852,0.465,4.277,0.842c1.405,0.335,2.825,0.673,4.258,1.014c1.398,0.35,2.81,0.701,4.234,1.057
		c1.423,0.356,2.858,0.717,4.304,1.079c1.415,0.299,2.841,0.602,4.275,0.905c1.429,0.3,2.868,0.601,4.313,0.904
		c1.471,0.242,2.95,0.485,4.434,0.729c1.485,0.234,2.97,0.505,4.468,0.712c1.501,0.176,3.007,0.351,4.516,0.526
		c3.005,0.439,6.046,0.615,9.076,0.866c1.514,0.147,3.032,0.197,4.548,0.238c1.516,0.051,3.029,0.102,4.54,0.152
		c1.51,0.018,3.016-0.03,4.516-0.04c1.5-0.032,2.998-0.005,4.482-0.109c2.973-0.146,5.92-0.271,8.814-0.559
		c1.447-0.138,2.895-0.211,4.316-0.398c1.423-0.169,2.836-0.338,4.237-0.505c1.407-0.139,2.78-0.393,4.151-0.591
		c1.366-0.22,2.733-0.387,4.064-0.642c2.658-0.514,5.29-0.946,7.793-1.569c5.062-1.088,9.734-2.52,13.99-4.022
		c4.14-1.56,8.197-3.342,11.758-4.676c1.788-0.687,3.474-1.304,5.045-1.849c1.563-0.561,3.008-1.056,4.328-1.475
		c2.622-0.871,4.727-1.468,6.166-1.865c1.441-0.395,2.227-0.571,2.227-0.571c0.186-0.043,0.371,0.074,0.412,0.261
		c0.029,0.13-0.02,0.261-0.115,0.341c0,0-0.615,0.517-1.803,1.425c-1.188,0.903-2.938,2.216-5.221,3.775
		c-1.133,0.796-2.402,1.646-3.797,2.549c-1.385,0.919-2.896,1.886-4.525,2.893c-3.285,2.02-6.869,4.195-11.301,6.463
		c-4.386,2.136-9.237,4.338-14.571,6.017c-2.641,0.959-5.433,1.605-8.266,2.396c-1.425,0.354-2.881,0.616-4.345,0.933
		c-1.465,0.309-2.945,0.624-4.454,0.81c-1.506,0.217-3.024,0.436-4.554,0.657c-1.532,0.199-3.085,0.282-4.641,0.429
		c-3.113,0.342-6.278,0.333-9.459,0.437c-1.592,0.079-3.187-0.035-4.787-0.061c-1.6-0.052-3.204-0.07-4.808-0.154
		c-1.602-0.118-3.205-0.236-4.812-0.355c-1.605-0.109-3.21-0.229-4.805-0.449c-3.193-0.392-6.393-0.714-9.538-1.301
		c-1.574-0.276-3.145-0.552-4.711-0.825c-1.559-0.308-3.1-0.677-4.641-1.011c-1.538-0.344-3.07-0.688-4.594-1.029
		c-1.521-0.41-3.036-0.818-4.541-1.224c-1.498-0.41-2.987-0.816-4.466-1.222c-1.417-0.462-2.823-0.922-4.217-1.377
		c-1.394-0.458-2.776-0.912-4.146-1.361c-1.343-0.425-2.673-0.846-3.99-1.263c-1.279-0.444-2.585-0.745-3.873-1.059
		c-1.292-0.296-2.55-0.683-3.833-0.884c-1.276-0.246-2.534-0.487-3.774-0.725c-1.247-0.205-2.486-0.346-3.703-0.52
		c-0.609-0.078-1.211-0.174-1.812-0.236c-0.603-0.051-1.2-0.101-1.792-0.15c-1.184-0.087-2.346-0.227-3.49-0.268
		c-4.574-0.266-8.8-0.223-12.548-0.056c-3.742,0.225-7.021,0.483-9.698,0.864c-2.684,0.344-4.789,0.686-6.21,0.965
		c-0.716,0.134-1.252,0.247-1.611,0.326c-0.366,0.083-0.556,0.125-0.556,0.125l-0.019,0.005c-0.472,0.106-0.942-0.189-1.049-0.662
		C151.945,340.151,152.187,339.721,152.591,339.569z"/>
	<path fill="#231F20" d="M101.401,192.946c0,0,1.329-0.155,3.82-0.445c0.623-0.073,1.319-0.154,2.084-0.243
		c0.711-0.094,1.487-0.196,2.326-0.307c1.678-0.226,3.557-0.456,5.815-0.8c8.907-1.23,21.77-3.362,37.325-6.396
		c7.779-1.505,16.24-3.163,25.206-5c8.998-1.84,18.486-3.782,28.301-5.79c9.846-2.019,20.052-4.097,30.491-6.079
		c10.437-1.992,21.091-3.944,31.853-5.664c10.771-1.685,21.63-3.18,32.59-4.052c2.723-0.249,5.503-0.369,8.238-0.53
		c2.781-0.083,5.524-0.194,8.335-0.146l2.265,0.009l1.927,0.091c1.396,0.086,3.148,0.194,4.507,0.369
		c2.885,0.325,5.703,0.784,8.431,1.388c5.467,1.184,10.61,2.824,15.46,4.698c4.836,1.915,9.384,4.055,13.664,6.322
		c8.576,4.51,16.08,9.539,22.736,14.428c6.66,4.89,12.4,9.763,17.371,14.169c4.937,4.454,9.084,8.473,12.398,11.879
		c3.32,3.401,5.834,6.158,7.515,8.075c0.838,0.964,1.479,1.704,1.912,2.202c0.435,0.514,0.658,0.779,0.658,0.779
		c0.794,0.938,0.677,2.343-0.262,3.137c-0.837,0.708-2.045,0.691-2.859,0.013l-0.045-0.039c0,0-0.25-0.207-0.732-0.608
		c-0.498-0.403-1.237-1.001-2.201-1.782c-1.95-1.542-4.821-3.799-8.546-6.564c-3.734-2.753-8.287-6.059-13.651-9.604
		c-5.33-3.587-11.484-7.394-18.302-11.223c-6.824-3.809-14.385-7.552-22.506-10.762c-4.063-1.598-8.276-3.022-12.59-4.191
		c-4.306-1.182-8.716-2.107-13.141-2.605c-2.213-0.264-4.425-0.392-6.62-0.417c-0.551-0.006-1.11-0.018-1.587,0.007l-0.743,0.021
		l-0.823,0.028l-1.927,0.1c0.321-0.002,0.025,0.005,0.068,0.007l-0.11,0.01l-0.223,0.021l-0.443,0.041l-0.888,0.082
		c-2.353,0.18-4.784,0.514-7.208,0.814c-2.454,0.385-4.902,0.717-7.397,1.189c-9.944,1.746-20.145,4.139-30.336,6.741
		c-10.201,2.577-20.416,5.375-30.478,8.229c-10.085,2.904-20.011,5.762-29.616,8.527c-9.632,2.787-18.963,5.526-27.87,8.022
		c-8.904,2.505-17.36,4.863-25.226,6.936c-15.734,4.132-29.107,7.25-38.653,9.201c-2.347,0.495-4.601,0.892-6.511,1.251
		c-0.957,0.176-1.841,0.339-2.652,0.488c-0.76,0.129-1.45,0.247-2.069,0.352c-2.473,0.42-3.792,0.645-3.792,0.645
		c-10.186,1.732-19.847-5.12-21.58-15.306c-1.733-10.186,5.12-19.848,15.306-21.58c0.304-0.052,0.607-0.096,0.909-0.132
		L101.401,192.946z"/>
	<circle fill="#231F20" cx="254.403" cy="296.263" r="41.57"/>
	<circle fill="#FFFFFF" cx="221.546" cy="290.459" r="13.5"/>
	<path fill="#FFFFFF" d="M271.704,280.717c5.576,9.545,5.906,20.915-0.179,29.384s-16.967,11.784-27.792,9.545l-4.206,5.854
		c13.671,7.133,30.859,3.324,40.119-9.563c9.259-12.888,7.385-30.392-3.737-41.072L271.704,280.717z"/>
	<path fill="#231F20" d="M312.616,274.148c0,0,0.149,0.101,0.431,0.288c0.31,0.194,0.814,0.493,1.488,0.859
		c1.352,0.728,3.404,1.707,6.003,2.628c1.299,0.457,2.731,0.915,4.278,1.301c0.769,0.224,1.572,0.379,2.396,0.551
		c0.82,0.191,1.669,0.331,2.537,0.452c0.866,0.144,1.751,0.271,2.653,0.334c0.901,0.076,1.819,0.199,2.746,0.2
		c0.926,0.014,1.867,0.092,2.809,0.058c0.946-0.032,1.896-0.063,2.846-0.096c0.949-0.095,1.898-0.189,2.844-0.283l0.713-0.072
		l0.088-0.009l0.022-0.003c0.022-0.004-0.116,0.029-0.046,0.014l0.046-0.008l0.185-0.031l0.369-0.062
		c0.492-0.082,0.982-0.164,1.471-0.246s0.975-0.163,1.459-0.244c0.452-0.098,0.902-0.196,1.35-0.293
		c0.892-0.209,1.785-0.36,2.651-0.634c1.754-0.465,3.412-1.024,4.957-1.632c1.534-0.625,2.954-1.297,4.204-2.022
		c0.617-0.37,1.229-0.711,1.755-1.101c0.551-0.366,1.055-0.735,1.502-1.113c0.927-0.727,1.635-1.463,2.21-2.081
		c0.541-0.638,0.942-1.168,1.168-1.546c0.124-0.188,0.2-0.331,0.254-0.428c0.046-0.088,0.07-0.134,0.07-0.134l0.021-0.041
		c0.13-0.244,0.433-0.337,0.676-0.208c0.212,0.112,0.31,0.354,0.248,0.575c0,0-0.082,0.296-0.282,0.746
		c-0.192,0.466-0.532,1.102-1.017,1.888c-0.512,0.759-1.159,1.678-2.031,2.609c-0.422,0.483-0.901,0.965-1.43,1.447
		c-0.51,0.512-1.099,0.974-1.706,1.478c-1.225,0.987-2.635,1.945-4.18,2.871c-1.552,0.906-3.239,1.78-5.033,2.566
		c-0.88,0.433-1.842,0.76-2.795,1.141c-0.478,0.182-0.959,0.366-1.443,0.551c-0.466,0.153-0.935,0.308-1.405,0.463
		c-0.47,0.155-0.941,0.312-1.415,0.467l-0.355,0.117l-0.178,0.059l-0.045,0.016l-0.116,0.029l-0.094,0.025l-0.761,0.199
		c-1.021,0.263-2.045,0.526-3.069,0.79c-1.043,0.198-2.086,0.396-3.125,0.594c-1.044,0.196-2.098,0.279-3.142,0.422
		c-1.045,0.154-2.088,0.183-3.121,0.253c-1.035,0.084-2.058,0.097-3.066,0.088c-1.011,0.014-2.006,0.002-2.978-0.067
		c-0.974-0.05-1.93-0.091-2.854-0.207c-1.857-0.17-3.605-0.441-5.218-0.742c-3.224-0.607-5.879-1.396-7.751-2.055
		c-0.937-0.333-1.678-0.626-2.21-0.853c-0.551-0.249-0.845-0.382-0.845-0.382l-0.015-0.007c-2.737-1.241-3.951-4.466-2.71-7.204
		c1.24-2.737,4.465-3.951,7.203-2.711C312.102,273.834,312.379,273.991,312.616,274.148z"/>
	<path fill="#231F20" d="M301.471,264.51c0,0,0.045,0.026,0.133,0.078c0.046,0.03,0.114,0.075,0.203,0.133
		c0.246,0.144,0.659,0.367,1.214,0.64c1.112,0.542,2.81,1.269,4.957,1.928c1.072,0.326,2.256,0.649,3.529,0.91
		c0.635,0.155,1.296,0.254,1.975,0.365c0.677,0.128,1.373,0.212,2.087,0.28c0.713,0.086,1.44,0.159,2.181,0.179
		c0.739,0.03,1.495,0.099,2.253,0.066c0.757-0.021,1.533,0.008,2.302-0.054c0.774-0.06,1.552-0.12,2.329-0.181
		c0.775-0.111,1.55-0.224,2.322-0.335l0.583-0.085l0.073-0.011l0.018-0.003c-0.131,0.041-0.025,0.009-0.05,0.018l0.038-0.009
		l0.152-0.032l0.304-0.065l1.21-0.26c0.402-0.087,0.803-0.173,1.201-0.259c0.367-0.097,0.732-0.193,1.096-0.289
		c0.723-0.203,1.45-0.359,2.152-0.616c2.851-0.893,5.396-2.058,7.4-3.34c0.495-0.326,0.986-0.629,1.403-0.969
		c0.439-0.32,0.841-0.643,1.194-0.97c0.735-0.631,1.29-1.262,1.74-1.791c0.421-0.543,0.731-0.994,0.903-1.311
		c0.095-0.158,0.151-0.277,0.191-0.358c0.034-0.07,0.052-0.107,0.052-0.107l0.024-0.049c0.12-0.249,0.42-0.353,0.668-0.232
		c0.21,0.103,0.315,0.331,0.272,0.549c0,0-0.053,0.259-0.191,0.646c-0.132,0.403-0.375,0.956-0.73,1.644
		c-0.378,0.666-0.861,1.475-1.53,2.308c-0.322,0.431-0.691,0.862-1.102,1.3c-0.394,0.459-0.855,0.882-1.331,1.34
		c-1.919,1.804-4.449,3.585-7.343,5.124c-0.706,0.416-1.49,0.752-2.264,1.13c-0.389,0.183-0.78,0.367-1.174,0.552
		c-0.376,0.157-0.753,0.315-1.133,0.474l-1.143,0.478l-0.286,0.12l-0.144,0.06l-0.036,0.016l-0.106,0.034l-0.077,0.027l-0.622,0.214
		c-0.837,0.284-1.677,0.57-2.517,0.855c-0.86,0.232-1.722,0.464-2.578,0.694c-0.861,0.231-1.738,0.368-2.604,0.554
		c-0.865,0.194-1.737,0.284-2.6,0.409c-0.862,0.134-1.719,0.211-2.566,0.267c-0.848,0.075-1.683,0.128-2.502,0.132
		c-0.821,0.019-1.628,0.044-2.411,0.006c-1.57-0.026-3.058-0.144-4.433-0.296c-2.751-0.309-5.04-0.806-6.667-1.247
		c-0.814-0.224-1.462-0.427-1.934-0.588c-0.492-0.183-0.755-0.279-0.755-0.279c-2.819-1.045-4.259-4.178-3.214-6.998
		s4.178-4.259,6.998-3.214c0.299,0.11,0.582,0.244,0.849,0.399L301.471,264.51z"/>
	<path fill="#231F20" d="M284.803,256.831c0,0,0.042,0.021,0.122,0.063c0.039,0.023,0.097,0.058,0.171,0.103
		c0.22,0.112,0.592,0.287,1.094,0.498c1.007,0.42,2.547,0.973,4.485,1.442c0.968,0.232,2.035,0.456,3.18,0.618
		c0.573,0.104,1.164,0.156,1.772,0.219c0.608,0.076,1.232,0.113,1.869,0.136c0.639,0.038,1.29,0.063,1.948,0.041
		c0.659-0.014,1.337,0.007,2.009-0.063c0.672-0.061,1.365-0.076,2.046-0.173c0.687-0.096,1.375-0.192,2.064-0.288
		c0.686-0.143,1.37-0.285,2.052-0.427l0.516-0.107l0.063-0.014l0.017-0.003c-0.129,0.05-0.025,0.011-0.05,0.021l0.033-0.009
		l0.135-0.038l0.27-0.076l1.071-0.302l1.063-0.3c0.321-0.106,0.642-0.212,0.961-0.317c0.632-0.221,1.271-0.398,1.884-0.667
		c2.496-0.955,4.705-2.135,6.423-3.39c0.856-0.626,1.614-1.253,2.211-1.873c0.622-0.604,1.082-1.197,1.454-1.694
		c0.346-0.508,0.599-0.927,0.733-1.218c0.076-0.146,0.12-0.255,0.151-0.329c0.027-0.063,0.04-0.096,0.04-0.096l0.024-0.057
		c0.106-0.254,0.399-0.375,0.654-0.268c0.21,0.088,0.328,0.305,0.302,0.521c0,0-0.029,0.241-0.125,0.601
		c-0.089,0.374-0.268,0.89-0.536,1.537c-0.291,0.628-0.667,1.393-1.207,2.194c-0.519,0.821-1.198,1.676-1.995,2.561
		c-1.596,1.769-3.743,3.563-6.234,5.164c-0.606,0.428-1.288,0.79-1.958,1.188c-0.338,0.194-0.679,0.389-1.02,0.585l-0.98,0.51
		l-0.987,0.514l-0.248,0.129l-0.124,0.064l-0.031,0.017l-0.1,0.041l-0.068,0.03l-0.545,0.239c-0.733,0.319-1.471,0.64-2.207,0.96
		c-0.76,0.273-1.519,0.547-2.275,0.818c-0.761,0.272-1.542,0.462-2.311,0.693c-0.769,0.24-1.549,0.387-2.319,0.563
		c-0.771,0.186-1.539,0.317-2.301,0.432c-0.761,0.131-1.513,0.24-2.254,0.305c-0.741,0.078-1.469,0.161-2.18,0.185
		c-1.424,0.093-2.779,0.097-4.036,0.061c-2.515-0.075-4.629-0.357-6.141-0.639c-0.758-0.144-1.364-0.281-1.809-0.395
		c-0.467-0.133-0.716-0.203-0.716-0.203l-0.016-0.005c-2.896-0.82-4.578-3.833-3.758-6.729c0.82-2.896,3.833-4.578,6.729-3.758
		C284.156,256.542,284.502,256.68,284.803,256.831z"/>
	<path fill="#231F20" d="M330.028,287.867c0,0,0.149,0.101,0.431,0.289c0.309,0.193,0.814,0.493,1.487,0.859
		c1.353,0.727,3.404,1.707,6.003,2.628c1.3,0.456,2.732,0.914,4.279,1.301c0.768,0.223,1.571,0.379,2.395,0.551
		c0.821,0.191,1.669,0.331,2.537,0.452c0.866,0.143,1.751,0.271,2.654,0.334c0.901,0.075,1.818,0.199,2.745,0.2
		c0.926,0.014,1.868,0.092,2.81,0.058c0.946-0.032,1.896-0.064,2.846-0.096c0.949-0.095,1.897-0.19,2.843-0.284l0.713-0.072
		l0.089-0.009l0.022-0.002c0.022-0.004-0.117,0.029-0.047,0.014l0.046-0.008l0.185-0.032l0.37-0.061
		c0.491-0.082,0.981-0.165,1.47-0.247c0.488-0.081,0.976-0.163,1.459-0.243c0.452-0.099,0.902-0.196,1.351-0.294
		c0.891-0.209,1.784-0.36,2.65-0.633c1.755-0.466,3.413-1.024,4.957-1.632c1.535-0.625,2.955-1.298,4.205-2.022
		c0.617-0.371,1.229-0.711,1.755-1.102c0.55-0.365,1.054-0.734,1.501-1.113c0.928-0.726,1.636-1.463,2.21-2.08
		c0.542-0.639,0.942-1.169,1.169-1.546c0.123-0.188,0.2-0.332,0.254-0.429c0.045-0.088,0.07-0.133,0.07-0.133l0.021-0.042
		c0.129-0.243,0.432-0.337,0.676-0.208c0.211,0.112,0.309,0.354,0.248,0.575c0,0-0.082,0.296-0.283,0.746
		c-0.191,0.466-0.531,1.103-1.016,1.888c-0.512,0.76-1.16,1.678-2.031,2.609c-0.422,0.484-0.902,0.965-1.43,1.448
		c-0.51,0.512-1.1,0.974-1.707,1.477c-1.225,0.988-2.635,1.945-4.18,2.871c-1.552,0.906-3.239,1.781-5.033,2.567
		c-0.88,0.432-1.841,0.76-2.794,1.14c-0.479,0.183-0.96,0.366-1.444,0.551c-0.466,0.153-0.935,0.308-1.404,0.464
		c-0.471,0.155-0.942,0.311-1.415,0.467l-0.356,0.117l-0.177,0.059l-0.045,0.015l-0.116,0.03l-0.095,0.024l-0.761,0.199
		c-1.021,0.263-2.045,0.527-3.069,0.791c-1.043,0.198-2.086,0.396-3.125,0.593c-1.043,0.197-2.097,0.28-3.142,0.423
		c-1.045,0.154-2.088,0.183-3.121,0.253c-1.034,0.083-2.057,0.097-3.066,0.088c-1.01,0.014-2.006,0.001-2.977-0.068
		c-0.974-0.05-1.931-0.091-2.854-0.206c-1.857-0.171-3.605-0.441-5.218-0.742c-3.224-0.607-5.88-1.397-7.752-2.056
		c-0.937-0.332-1.677-0.626-2.21-0.852c-0.55-0.25-0.845-0.383-0.845-0.383l-0.014-0.006c-2.737-1.241-3.952-4.466-2.711-7.204
		c1.24-2.738,4.466-3.952,7.203-2.712C329.513,287.553,329.791,287.711,330.028,287.867z"/>
	<g>
		<path fill="#231F20" d="M158.279,325.977c2.087,2.09,4.084,4.131,4.607,7.147c0.55,3.172,5.368,1.823,4.821-1.33
			c-0.663-3.825-3.24-6.696-5.893-9.353C159.534,320.158,155.998,323.694,158.279,325.977L158.279,325.977z"/>
	</g>
</g>
</svg>
