<?xml version="1.0" encoding="utf-8"?>
<!-- Generator: Adobe Illustrator 16.0.0, SVG Export Plug-In . SVG Version: 6.00 Build 0)  -->
<!DOCTYPE svg PUBLIC "-//W3C//DTD SVG 1.1//EN" "http://www.w3.org/Graphics/SVG/1.1/DTD/svg11.dtd">
<svg version="1.1" id="Layer_1" xmlns="http://www.w3.org/2000/svg" xmlns:xlink="http://www.w3.org/1999/xlink" x="0px" y="0px"
	 width="512px" height="512px" viewBox="0 0 512 512" enable-background="new 0 0 512 512" xml:space="preserve">
<g>
	<path d="M142.618,357.324c0.031-0.044,8.948-12.642,19.372-29.873c10.424-17.249,22.356-39.059,28.446-57.867l-3.221-1.039
		l3.117,1.316c5.308-12.57,9.899-21.473,13.147-27.206c1.623-2.867,2.909-4.939,3.779-6.285c0.437-0.672,0.767-1.16,0.984-1.476
		l0.24-0.342l0.053-0.074l0.009-0.014l-0.647-0.474l0.647,0.477v-0.003l-0.647-0.474l0.647,0.477
		c1.108-1.505,0.786-3.623-0.718-4.729c-1.504-1.11-3.621-0.789-4.73,0.715c-0.161,0.219-8.187,11.169-18.998,36.773l-0.104,0.277
		c-5.75,17.84-17.5,39.44-27.794,56.444c-5.148,8.51-9.933,15.889-13.425,21.132c-1.749,2.623-3.172,4.713-4.158,6.143
		c-0.491,0.716-0.875,1.267-1.135,1.637c-0.258,0.369-0.39,0.555-0.39,0.555c-1.079,1.526-0.718,3.638,0.807,4.718
		c1.525,1.079,3.638,0.718,4.717-0.807V357.324z"/>
	<path d="M203.686,211.843c-0.055,0.204-1.365,5.078-1.367,12.319c0,6.105,0.936,13.919,4.45,21.962
		c3.504,8.037,9.636,16.263,19.729,22.98c15.379,10.252,31.381,19.028,44.228,26.47c6.42,3.718,12.051,7.104,16.365,10.118
		c2.154,1.504,3.979,2.915,5.392,4.192c1.414,1.271,2.4,2.421,2.916,3.273l2.887-1.765l-3.36-0.396
		c-0.214,1.833-0.639,4.188-1.021,6.739c-0.379,2.558-0.719,5.323-0.721,8.107c0.002,1.953,0.168,3.922,0.652,5.852
		c0.365,1.444,0.916,2.867,1.733,4.197c1.213,1.996,3.069,3.731,5.45,4.844c2.381,1.123,5.216,1.667,8.543,1.667
		c3.423,0,6.766-0.06,10.061-0.06c7.138-0.002,14.019,0.282,21.046,1.956c7.027,1.676,14.249,4.72,22.167,10.43l1.979-2.741
		l-2.046,2.693c3.2,2.431,5.997,4.146,8.525,5.287c2.526,1.137,4.804,1.716,6.944,1.719c1.394,0.002,2.727-0.261,3.904-0.773
		c1.775-0.762,3.116-2.062,4-3.429c0.894-1.375,1.398-2.826,1.707-4.2c0.053-0.238,0.081-0.489,0.081-0.733
		c0.004-0.672-0.174-1.361-0.449-1.905c-0.533-1.035-1.221-1.562-1.773-1.947c-0.99-0.649-1.862-0.973-2.748-1.354
		c-1.314-0.54-2.612-1.106-3.541-1.784c-0.938-0.7-1.461-1.33-1.756-2.356c-0.271-0.947-0.654-1.623-1.112-2.379
		c-0.865-1.385-2.07-2.923-3.59-4.709c-5.29-6.197-14.425-15.225-22.897-23.208c-4.231-3.984-8.285-7.695-11.589-10.624
		c-1.652-1.467-3.114-2.735-4.328-3.758c-1.222-1.023-2.158-1.779-2.911-2.308c-0.553-0.386-2.158-1.612-4.409-3.432
		c-7.938-6.397-24.462-20.478-41.327-37.616c-16.868-17.126-34.082-37.388-43.396-55.813l-0.128-0.229
		c-11.888-19.57-28.824-27.574-42.352-27.574c-3.645,0-7.054,0.577-10.078,1.709c-3.019,1.128-5.666,2.819-7.677,5.079
		c-2.147,2.418-6.313,6.69-11.404,11.896c-7.65,7.823-17.447,17.809-26.155,27.36c-4.358,4.777-8.443,9.446-11.87,13.708
		c-3.43,4.27-6.195,8.096-7.969,11.393c-0.883,1.647-0.262,3.7,1.386,4.581c1.645,0.881,3.695,0.262,4.578-1.384
		c1.868-3.51,5.834-8.773,10.792-14.597c7.448-8.766,17.161-18.96,25.845-27.899c4.346-4.471,8.433-8.629,11.868-12.157
		c3.44-3.533,6.211-6.411,7.986-8.409c1.145-1.29,2.827-2.427,4.99-3.235c2.158-0.808,4.786-1.281,7.708-1.279
		c10.891,0,25.737,6.506,36.57,24.323l2.892-1.758l-3.017,1.528c11.344,22.35,32.665,45.994,51.892,64.745
		c9.613,9.365,18.702,17.48,25.755,23.511c3.523,3.018,6.541,5.51,8.862,7.385c2.334,1.881,3.92,3.103,4.776,3.704
		c0.5,0.346,1.7,1.309,3.231,2.618c5.413,4.623,15.438,13.827,24.212,22.478c4.388,4.325,8.473,8.525,11.501,11.919
		c1.514,1.694,2.764,3.189,3.625,4.35c0.432,0.577,0.765,1.073,0.976,1.428l0.216,0.403l0.033,0.074l0.463-0.176l-0.476,0.13
		l0.013,0.046l0.463-0.176l-0.476,0.13c0.605,2.255,1.909,4.037,3.327,5.271c2.135,1.858,4.474,2.727,6.018,3.387
		c0.764,0.311,1.345,0.593,1.438,0.663l0.007,0.004l0.927-1.257l-1.288,0.853c0.203,0.297,0.346,0.39,0.361,0.404l0.927-1.257
		l-1.288,0.853l2.044-1.353h-2.442c-0.009,0.518,0.198,1.068,0.398,1.353l2.044-1.353h-2.442h3.383l-3.302-0.735
		c-0.227,1.055-0.656,1.936-1.09,2.385c-0.22,0.233-0.43,0.383-0.702,0.504c-0.278,0.119-0.642,0.214-1.216,0.217
		c-0.872,0.004-2.256-0.256-4.163-1.119c-1.904-0.856-4.312-2.302-7.215-4.509l-0.065-0.048c-8.574-6.2-16.728-9.671-24.562-11.529
		c-7.836-1.863-15.309-2.137-22.611-2.139c-3.374,0-6.717,0.06-10.061,0.06c-2.308,0-4.002-0.34-5.215-0.828
		c-0.914-0.368-1.57-0.811-2.102-1.317c-0.783-0.76-1.339-1.72-1.729-3.015c-0.388-1.286-0.57-2.879-0.568-4.634
		c-0.002-2.225,0.284-4.691,0.647-7.109c0.359-2.423,0.793-4.788,1.049-6.946c0.088-0.747-0.079-1.516-0.472-2.158
		c-1.037-1.685-2.444-3.214-4.156-4.766c-2.997-2.703-6.97-5.462-11.705-8.444c-14.179-8.911-35.277-19.753-55.062-32.945
		c-9.024-6.027-14.229-13.104-17.281-20.062c-3.044-6.955-3.888-13.833-3.885-19.251c0-3.206,0.292-5.897,0.583-7.757
		c0.146-0.932,0.289-1.655,0.393-2.132c0.053-0.239,0.095-0.418,0.121-0.528l0.03-0.119l0.005-0.018l-1.014-0.269l1.011,0.273
		l0.003-0.005l-1.014-0.269l1.011,0.273c0.489-1.802-0.574-3.66-2.378-4.149S204.175,210.039,203.686,211.843z"/>
	<path d="M185.937,270.721c10.215,8.349,20.169,15.789,27.913,22.074c3.869,3.139,7.187,5.992,9.671,8.468
		c2.488,2.456,4.107,4.607,4.629,5.885l3.107-1.337l-3.271-0.867c-0.502,1.909-1.392,4.481-2.172,7.27
		c-0.777,2.797-1.467,5.83-1.476,8.931c0.003,1.484,0.166,2.995,0.61,4.486c0.649,2.229,2.018,4.411,4.125,5.995
		c2.105,1.597,4.806,2.597,8.096,3.067c7.99,1.139,15.479,1.861,22.753,4.097c7.276,2.242,14.412,5.913,22.001,13.223l2.351-2.434
		l-2.407,2.377c2.81,2.845,5.294,4.847,7.611,6.199c2.308,1.344,4.499,2.063,6.643,2.068c2.271,0.024,4.345-0.923,5.715-2.223
		c1.392-1.297,2.213-2.827,2.764-4.268c0.086-0.231,0.152-0.482,0.186-0.725l0.039-0.582c0.005-0.651-0.16-1.274-0.388-1.762
		c-0.438-0.921-0.978-1.414-1.427-1.804c-0.8-0.663-1.518-1.053-2.229-1.484c-1.058-0.621-2.058-1.258-2.712-1.909
		c-0.662-0.674-0.967-1.189-1.081-2.002c-0.128-0.93-0.39-1.59-0.705-2.328c-0.597-1.35-1.462-2.852-2.572-4.614
		c-3.865-6.101-10.714-15.126-17.118-23.164c-3.2-4.013-6.277-7.759-8.799-10.736c-1.26-1.487-2.381-2.782-3.316-3.828
		c-0.945-1.053-1.67-1.832-2.28-2.407c-0.352-0.328-1.334-1.323-2.69-2.766c-4.097-4.354-11.887-13.041-20.716-24.02
		c-1.172-1.458-3.299-1.687-4.757-0.518c-1.456,1.17-1.688,3.3-0.516,4.755c5.971,7.427,11.464,13.807,15.712,18.566
		c2.125,2.378,3.938,4.352,5.348,5.852c1.42,1.509,2.398,2.506,2.994,3.067c0.37,0.342,1.3,1.333,2.467,2.663
		c4.141,4.7,11.741,13.989,18.313,22.632c3.289,4.323,6.328,8.494,8.541,11.826c1.104,1.661,2.004,3.116,2.604,4.222
		c0.3,0.551,0.521,1.014,0.654,1.331l0.125,0.341l0.014,0.044l0.813-0.185l-0.826,0.104l0.014,0.081l0.813-0.185l-0.826,0.104
		c0.249,2.088,1.179,3.86,2.275,5.151c1.651,1.946,3.59,3.02,4.871,3.797c0.637,0.374,1.124,0.687,1.221,0.777l0.016,0.013
		l0.96-1.063l-1.218,0.727c0.156,0.256,0.255,0.331,0.258,0.337l0.96-1.063l-1.218,0.727l2.143-1.277h-2.484
		c-0.002,0.549,0.189,1.033,0.342,1.277l2.143-1.277h-2.484h2.59l-2.563-0.361l-0.024,0.361h2.588l-2.563-0.361l3.35,0.472
		l-3.164-1.196c-0.284,0.767-0.686,1.388-1.024,1.689c-0.363,0.3-0.53,0.403-1.125,0.428c-0.562,0.004-1.63-0.209-3.238-1.147
		c-1.601-0.93-3.687-2.558-6.201-5.107l-0.058-0.058c-8.299-8.031-16.597-12.349-24.722-14.824
		c-8.126-2.484-16.006-3.206-23.771-4.325c-1.656-0.235-2.903-0.623-3.814-1.063c-1.368-0.679-2.014-1.386-2.491-2.26
		c-0.465-0.877-0.721-2.051-0.718-3.528c-0.009-2.046,0.511-4.581,1.222-7.111c0.71-2.541,1.586-5.061,2.198-7.354
		c0.191-0.729,0.135-1.513-0.163-2.205c-1.202-2.735-3.308-5.228-6.069-8.003c-4.147-4.127-9.862-8.746-16.461-13.926
		c-6.594-5.173-14.06-10.886-21.616-17.062c-1.446-1.183-3.576-0.969-4.759,0.478C184.276,267.408,184.489,269.54,185.937,270.721z"
		/>
	<path fill="#3A3A3A" d="M196.839,171.185c-0.075-0.095-3.967-5.105-9.641-10.219c-2.843-2.558-6.129-5.147-9.694-7.16
		c-3.565-2-7.446-3.479-11.556-3.493c-0.304,0-0.608,0.009-0.914,0.026c-2.451,0.152-4.693,1.097-6.845,2.401
		c-3.758,2.303-7.381,5.84-10.906,9.87c-5.266,6.048-10.217,13.236-13.891,18.947c-3.669,5.706-6.045,9.926-6.067,9.966
		c-0.918,1.628-0.342,3.691,1.286,4.607c1.63,0.916,3.691,0.339,4.607-1.288c0,0,0.077-0.135,0.235-0.412
		c1.181-2.06,6.732-11.563,13.422-20.504c3.336-4.471,6.968-8.797,10.364-11.929c1.693-1.563,3.325-2.823,4.757-3.653
		c1.434-0.841,2.639-1.216,3.425-1.251l0.526-0.016c2.39-0.013,5.29,0.952,8.234,2.621c4.423,2.484,8.843,6.427,12.066,9.734
		c1.617,1.656,2.942,3.149,3.859,4.22c0.455,0.535,0.811,0.965,1.048,1.258l0.265,0.328l0.063,0.079l0.016,0.02
		c1.146,1.474,3.271,1.74,4.746,0.593C197.722,174.785,197.986,172.658,196.839,171.185z"/>
	<path d="M142.618,357.324c0.031-0.044,8.948-12.642,19.372-29.873c10.424-17.249,22.356-39.059,28.446-57.867l-3.221-1.039
		l3.117,1.316c5.308-12.57,9.899-21.473,13.147-27.206c1.623-2.867,2.909-4.939,3.779-6.285c0.437-0.672,0.767-1.16,0.984-1.476
		l0.24-0.342l0.053-0.074l0.009-0.014l-0.647-0.474l0.647,0.477v-0.003l-0.647-0.474l0.647,0.477
		c1.108-1.505,0.786-3.623-0.718-4.729c-1.504-1.11-3.621-0.789-4.73,0.715c-0.161,0.219-8.187,11.169-18.998,36.773l-0.104,0.277
		c-5.75,17.84-17.5,39.44-27.794,56.444c-5.148,8.51-9.933,15.889-13.425,21.132c-1.749,2.623-3.172,4.713-4.158,6.143
		c-0.491,0.716-0.875,1.267-1.135,1.637c-0.258,0.369-0.39,0.555-0.39,0.555c-1.079,1.526-0.718,3.638,0.807,4.718
		c1.525,1.079,3.638,0.718,4.717-0.807V357.324z"/>
	<path d="M203.686,211.843c-0.055,0.204-1.365,5.078-1.367,12.319c0,6.105,0.936,13.919,4.45,21.962
		c3.504,8.037,9.636,16.263,19.729,22.98c15.379,10.252,31.381,19.028,44.228,26.47c6.42,3.718,12.051,7.104,16.365,10.118
		c2.154,1.504,3.979,2.915,5.392,4.192c1.414,1.271,2.4,2.421,2.916,3.273l2.887-1.765l-3.36-0.396
		c-0.214,1.833-0.639,4.188-1.021,6.739c-0.379,2.558-0.719,5.323-0.721,8.107c0.002,1.953,0.168,3.922,0.652,5.852
		c0.365,1.444,0.916,2.867,1.733,4.197c1.213,1.996,3.069,3.731,5.45,4.844c2.381,1.123,5.216,1.667,8.543,1.667
		c3.423,0,6.766-0.06,10.061-0.06c7.138-0.002,14.019,0.282,21.046,1.956c7.027,1.676,14.249,4.72,22.167,10.43l1.979-2.741
		l-2.046,2.693c3.2,2.431,5.997,4.146,8.525,5.287c2.526,1.137,4.804,1.716,6.944,1.719c1.394,0.002,2.727-0.261,3.904-0.773
		c1.775-0.762,3.116-2.062,4-3.429c0.894-1.375,1.398-2.826,1.707-4.2c0.053-0.238,0.081-0.489,0.081-0.733
		c0.004-0.672-0.174-1.361-0.449-1.905c-0.533-1.035-1.221-1.562-1.773-1.947c-0.99-0.649-1.862-0.973-2.748-1.354
		c-1.314-0.54-2.612-1.106-3.541-1.784c-0.938-0.7-1.461-1.33-1.756-2.356c-0.271-0.947-0.654-1.623-1.112-2.379
		c-0.865-1.385-2.07-2.923-3.59-4.709c-5.29-6.197-14.425-15.225-22.897-23.208c-4.231-3.984-8.285-7.695-11.589-10.624
		c-1.652-1.467-3.114-2.735-4.328-3.758c-1.222-1.023-2.158-1.779-2.911-2.308c-0.553-0.386-2.158-1.612-4.409-3.432
		c-7.938-6.397-24.462-20.478-41.327-37.616c-16.868-17.126-34.082-37.388-43.396-55.813l-0.128-0.229
		c-11.888-19.57-28.824-27.574-42.352-27.574c-3.645,0-7.054,0.577-10.078,1.709c-3.019,1.128-5.666,2.819-7.677,5.079
		c-2.147,2.418-6.313,6.69-11.404,11.896c-7.65,7.823-17.447,17.809-26.155,27.36c-4.358,4.777-8.443,9.446-11.87,13.708
		c-3.43,4.27-6.195,8.096-7.969,11.393c-0.883,1.647-0.262,3.7,1.386,4.581c1.645,0.881,3.695,0.262,4.578-1.384
		c1.868-3.51,5.834-8.773,10.792-14.597c7.448-8.766,17.161-18.96,25.845-27.899c4.346-4.471,8.433-8.629,11.868-12.157
		c3.44-3.533,6.211-6.411,7.986-8.409c1.145-1.29,2.827-2.427,4.99-3.235c2.158-0.808,4.786-1.281,7.708-1.279
		c10.891,0,25.737,6.506,36.57,24.323l2.892-1.758l-3.017,1.528c11.344,22.35,32.665,45.994,51.892,64.745
		c9.613,9.365,18.702,17.48,25.755,23.511c3.523,3.018,6.541,5.51,8.862,7.385c2.334,1.881,3.92,3.103,4.776,3.704
		c0.5,0.346,1.7,1.309,3.231,2.618c5.413,4.623,15.438,13.827,24.212,22.478c4.388,4.325,8.473,8.525,11.501,11.919
		c1.514,1.694,2.764,3.189,3.625,4.35c0.432,0.577,0.765,1.073,0.976,1.428l0.216,0.403l0.033,0.074l0.463-0.176l-0.476,0.13
		l0.013,0.046l0.463-0.176l-0.476,0.13c0.605,2.255,1.909,4.037,3.327,5.271c2.135,1.858,4.474,2.727,6.018,3.387
		c0.764,0.311,1.345,0.593,1.438,0.663l0.007,0.004l0.927-1.257l-1.288,0.853c0.203,0.297,0.346,0.39,0.361,0.404l0.927-1.257
		l-1.288,0.853l2.044-1.353h-2.442c-0.009,0.518,0.198,1.068,0.398,1.353l2.044-1.353h-2.442h3.383l-3.302-0.735
		c-0.227,1.055-0.656,1.936-1.09,2.385c-0.22,0.233-0.43,0.383-0.702,0.504c-0.278,0.119-0.642,0.214-1.216,0.217
		c-0.872,0.004-2.256-0.256-4.163-1.119c-1.904-0.856-4.312-2.302-7.215-4.509l-0.065-0.048c-8.574-6.2-16.728-9.671-24.562-11.529
		c-7.836-1.863-15.309-2.137-22.611-2.139c-3.374,0-6.717,0.06-10.061,0.06c-2.308,0-4.002-0.34-5.215-0.828
		c-0.914-0.368-1.57-0.811-2.102-1.317c-0.783-0.76-1.339-1.72-1.729-3.015c-0.388-1.286-0.57-2.879-0.568-4.634
		c-0.002-2.225,0.284-4.691,0.647-7.109c0.359-2.423,0.793-4.788,1.049-6.946c0.088-0.747-0.079-1.516-0.472-2.158
		c-1.037-1.685-2.444-3.214-4.156-4.766c-2.997-2.703-6.97-5.462-11.705-8.444c-14.179-8.911-35.277-19.753-55.062-32.945
		c-9.024-6.027-14.229-13.104-17.281-20.062c-3.044-6.955-3.888-13.833-3.885-19.251c0-3.206,0.292-5.897,0.583-7.757
		c0.146-0.932,0.289-1.655,0.393-2.132c0.053-0.239,0.095-0.418,0.121-0.528l0.03-0.119l0.005-0.018l-1.014-0.269l1.011,0.273
		l0.003-0.005l-1.014-0.269l1.011,0.273c0.489-1.802-0.574-3.66-2.378-4.149S204.175,210.039,203.686,211.843z"/>
	<path d="M185.937,270.721c10.215,8.349,20.169,15.789,27.913,22.074c3.869,3.139,7.187,5.992,9.671,8.468
		c2.488,2.456,4.107,4.607,4.629,5.885l3.107-1.337l-3.271-0.867c-0.502,1.909-1.392,4.481-2.172,7.27
		c-0.777,2.797-1.467,5.83-1.476,8.931c0.003,1.484,0.166,2.995,0.61,4.486c0.649,2.229,2.018,4.411,4.125,5.995
		c2.105,1.597,4.806,2.597,8.096,3.067c7.99,1.139,15.479,1.861,22.753,4.097c7.276,2.242,14.412,5.913,22.001,13.223l2.351-2.434
		l-2.407,2.377c2.81,2.845,5.294,4.847,7.611,6.199c2.308,1.344,4.499,2.063,6.643,2.068c2.271,0.024,4.345-0.923,5.715-2.223
		c1.392-1.297,2.213-2.827,2.764-4.268c0.086-0.231,0.152-0.482,0.186-0.725l0.039-0.582c0.005-0.651-0.16-1.274-0.388-1.762
		c-0.438-0.921-0.978-1.414-1.427-1.804c-0.8-0.663-1.518-1.053-2.229-1.484c-1.058-0.621-2.058-1.258-2.712-1.909
		c-0.662-0.674-0.967-1.189-1.081-2.002c-0.128-0.93-0.39-1.59-0.705-2.328c-0.597-1.35-1.462-2.852-2.572-4.614
		c-3.865-6.101-10.714-15.126-17.118-23.164c-3.2-4.013-6.277-7.759-8.799-10.736c-1.26-1.487-2.381-2.782-3.316-3.828
		c-0.945-1.053-1.67-1.832-2.28-2.407c-0.352-0.328-1.334-1.323-2.69-2.766c-4.097-4.354-11.887-13.041-20.716-24.02
		c-1.172-1.458-3.299-1.687-4.757-0.518c-1.456,1.17-1.688,3.3-0.516,4.755c5.971,7.427,11.464,13.807,15.712,18.566
		c2.125,2.378,3.938,4.352,5.348,5.852c1.42,1.509,2.398,2.506,2.994,3.067c0.37,0.342,1.3,1.333,2.467,2.663
		c4.141,4.7,11.741,13.989,18.313,22.632c3.289,4.323,6.328,8.494,8.541,11.826c1.104,1.661,2.004,3.116,2.604,4.222
		c0.3,0.551,0.521,1.014,0.654,1.331l0.125,0.341l0.014,0.044l0.813-0.185l-0.826,0.104l0.014,0.081l0.813-0.185l-0.826,0.104
		c0.249,2.088,1.179,3.86,2.275,5.151c1.651,1.946,3.59,3.02,4.871,3.797c0.637,0.374,1.124,0.687,1.221,0.777l0.016,0.013
		l0.96-1.063l-1.218,0.727c0.156,0.256,0.255,0.331,0.258,0.337l0.96-1.063l-1.218,0.727l2.143-1.277h-2.484
		c-0.002,0.549,0.189,1.033,0.342,1.277l2.143-1.277h-2.484h2.59l-2.563-0.361l-0.024,0.361h2.588l-2.563-0.361l3.35,0.472
		l-3.164-1.196c-0.284,0.767-0.686,1.388-1.024,1.689c-0.363,0.3-0.53,0.403-1.125,0.428c-0.562,0.004-1.63-0.209-3.238-1.147
		c-1.601-0.93-3.687-2.558-6.201-5.107l-0.058-0.058c-8.299-8.031-16.597-12.349-24.722-14.824
		c-8.126-2.484-16.006-3.206-23.771-4.325c-1.656-0.235-2.903-0.623-3.814-1.063c-1.368-0.679-2.014-1.386-2.491-2.26
		c-0.465-0.877-0.721-2.051-0.718-3.528c-0.009-2.046,0.511-4.581,1.222-7.111c0.71-2.541,1.586-5.061,2.198-7.354
		c0.191-0.729,0.135-1.513-0.163-2.205c-1.202-2.735-3.308-5.228-6.069-8.003c-4.147-4.127-9.862-8.746-16.461-13.926
		c-6.594-5.173-14.06-10.886-21.616-17.062c-1.446-1.183-3.576-0.969-4.759,0.478C184.276,267.408,184.489,269.54,185.937,270.721z"
		/>
	<path d="M196.839,171.185c-0.075-0.095-3.967-5.105-9.641-10.219c-2.843-2.558-6.129-5.147-9.694-7.16
		c-3.565-2-7.446-3.479-11.556-3.493c-0.304,0-0.608,0.009-0.914,0.026c-2.451,0.152-4.693,1.097-6.845,2.401
		c-3.758,2.303-7.381,5.84-10.906,9.87c-5.266,6.048-10.217,13.236-13.891,18.947c-3.669,5.706-6.045,9.926-6.067,9.966
		c-0.918,1.628-0.342,3.691,1.286,4.607c1.63,0.916,3.691,0.339,4.607-1.288c0,0,0.077-0.135,0.235-0.412
		c1.181-2.06,6.732-11.563,13.422-20.504c3.336-4.471,6.968-8.797,10.364-11.929c1.693-1.563,3.325-2.823,4.757-3.653
		c1.434-0.841,2.639-1.216,3.425-1.251l0.526-0.016c2.39-0.013,5.29,0.952,8.234,2.621c4.423,2.484,8.843,6.427,12.066,9.734
		c1.617,1.656,2.942,3.149,3.859,4.22c0.455,0.535,0.811,0.965,1.048,1.258l0.265,0.328l0.063,0.079l0.016,0.02
		c1.146,1.474,3.271,1.74,4.746,0.593C197.722,174.785,197.986,172.658,196.839,171.185z"/>
</g>
</svg>
